<svg id="vlpa" xmlns="http://www.w3.org/2000/svg" width="62.706" height="61.138" viewBox="0 0 62.706 61.138">
  <g id="vlpb">
    <g id="vlpc">
      <g id="vlpd">
        <path id="Path_771" data-name="Path 771" d="M11.1,0H51.6a11.1,11.1,0,0,1,11.1,11.1v38.93a11.1,11.1,0,0,1-11.1,11.1H11.1A11.1,11.1,0,0,1,0,50.034V11.1A11.1,11.1,0,0,1,11.1,0Z" fill="#300"/>
      </g>
    </g>
  </g>
  <g id="vlpe" transform="translate(12.878 13.56)">
    <g id="vlpf">
      <path id="Path_772" data-name="Path 772" d="M66.72,80.533H57l-1.986,6.14a.457.457,0,0,1-.5.366H49.606c-.287,0-.366-.157-.287-.47l8.413-24.22c.078-.261.157-.549.261-.862a9.126,9.126,0,0,0,.157-1.7.259.259,0,0,1,.209-.287h6.767c.209,0,.314.078.34.209L75,86.62c.078.287,0,.418-.261.418H69.281a.394.394,0,0,1-.418-.287Zm-8.2-5.3h6.636c-.157-.549-.366-1.2-.6-1.881-.235-.705-.47-1.463-.705-2.247-.261-.81-.5-1.594-.758-2.4s-.5-1.568-.705-2.325c-.209-.732-.392-1.411-.575-2.038h-.052a32.081,32.081,0,0,1-.888,3.37c-.392,1.254-.784,2.561-1.2,3.867C59.3,72.9,58.908,74.131,58.516,75.229Z" transform="translate(-49.29 -57.514)" fill="#ff9a00"/>
      <path id="Path_773" data-name="Path 773" d="M160.909,58.458a3.233,3.233,0,0,1-2.325-.914,3.394,3.394,0,0,1-.888-2.4,3.074,3.074,0,0,1,.941-2.325,3.346,3.346,0,0,1,2.325-.914,3.129,3.129,0,0,1,2.378.914,3.592,3.592,0,0,1-.052,4.729A3.072,3.072,0,0,1,160.909,58.458Zm-2.926,22.679V61.019c0-.261.1-.366.34-.366H163.5c.235,0,.34.131.34.366V81.137c0,.287-.1.418-.34.418h-5.121A.366.366,0,0,1,157.983,81.137Z" transform="translate(-129.371 -51.9)" fill="#ff9a00"/>
    </g>
  </g>
</svg>
