<svg xmlns="http://www.w3.org/2000/svg" width="64.663" height="75.921" viewBox="0 0 64.663 75.921">
  <g id="avatar" transform="translate(-35.818 0.25)">
    <g id="Group_21" data-name="Group 21" transform="translate(36.073)">
      <path id="Path_607" data-name="Path 607" d="M153.109,40.639h.5a14.412,14.412,0,0,0,11.011-4.764c6.013-6.778,5.014-18.4,4.9-19.507-.39-8.325-4.326-12.307-7.575-14.166a17.365,17.365,0,0,0-8.4-2.2h-.266a17.392,17.392,0,0,0-8.4,2.14C141.6,4,137.6,7.981,137.209,16.368c-.109,1.109-1.109,12.729,4.9,19.507A14.354,14.354,0,0,0,153.109,40.639ZM141.38,16.759c0-.047.016-.094.016-.125.515-11.2,8.465-12.4,11.87-12.4h.187c4.217.094,11.386,1.812,11.87,12.4a.3.3,0,0,0,.016.125c.016.109,1.109,10.73-3.858,16.321a10.237,10.237,0,0,1-8.043,3.342h-.156a10.2,10.2,0,0,1-8.028-3.342C140.3,27.52,141.364,16.852,141.38,16.759Z" transform="translate(-121.306)" stroke="#000" stroke-width="0.5"/>
      <path id="Path_608" data-name="Path 608" d="M100.222,278.667v-.047c0-.125-.016-.25-.016-.39-.094-3.092-.3-10.324-7.075-12.635-.047-.016-.109-.031-.156-.047a45.066,45.066,0,0,1-12.963-5.9,2.108,2.108,0,1,0-2.421,3.452,48.642,48.642,0,0,0,14.26,6.513c3.639,1.3,4.045,5.185,4.154,8.746a3.135,3.135,0,0,0,.016.39,28.35,28.35,0,0,1-.328,4.826c-2.53,1.437-12.448,6.4-27.535,6.4-15.025,0-25.005-4.982-27.551-6.419a26.838,26.838,0,0,1-.328-4.826c0-.125.016-.25.016-.39.109-3.561.515-7.45,4.154-8.746a49.1,49.1,0,0,0,14.26-6.513,2.108,2.108,0,1,0-2.421-3.452,44.573,44.573,0,0,1-12.963,5.9c-.062.016-.109.031-.156.047-6.778,2.327-6.981,9.558-7.075,12.635a3.137,3.137,0,0,1-.016.39v.047c-.016.812-.031,4.982.8,7.075a2,2,0,0,0,.812.984c.469.312,11.7,7.466,30.487,7.466s30.019-7.169,30.487-7.466a2.09,2.09,0,0,0,.812-.984C100.253,283.649,100.237,279.479,100.222,278.667Z" transform="translate(-36.073 -218.754)" stroke="#000" stroke-width="0.5"/>
    </g>
  </g>
</svg>
