<svg xmlns="http://www.w3.org/2000/svg" width="40.901" height="40.815" viewBox="0 0 40.901 40.815">
  <g id="brush" transform="translate(40.901 41.354) rotate(180)">
    <g id="Group_26" data-name="Group 26" transform="translate(0 0.538)">
      <path id="Path_611" data-name="Path 611" d="M40.387,1.034c-1.062-1.063-2.778-.2-4.063.573a46.976,46.976,0,0,0-5.175,3.834c-4.5,3.718-9.619,8.589-13.757,12.727l0,0c-2.325,2.347-4.536,4.643-7.122,7.633a7.2,7.2,0,0,0-3.8.5l-.029.013a7.33,7.33,0,0,0-4.3,6.593v.012c0,3.151-.549,5.684-1.09,6.558L0,41.159l1.977.142c.485.035.993.053,1.517.053,3.849,0,8.543-.967,11.074-3.289l.007-.006a6.627,6.627,0,0,0,1.939-5.143,6.769,6.769,0,0,0-.048-.8c2.982-2.578,5.278-4.777,7.668-7.124l0-.008A124.974,124.974,0,0,0,36.483,10.671,43.971,43.971,0,0,0,40,5.162C40.752,3.681,41.385,2.032,40.387,1.034ZM12.945,36.3c-1.7,1.555-5.428,2.606-9.135,2.655a23.129,23.129,0,0,0,.722-6.035A4.926,4.926,0,0,1,7.406,28.5a4.663,4.663,0,0,1,3.145-.188,4.355,4.355,0,0,1,2.168,1.207C14.706,31.509,14.423,34.92,12.945,36.3ZM15.7,29.6a7.083,7.083,0,0,0-1.29-1.77A6.938,6.938,0,0,0,12.752,26.6c1.559-1.773,3.25-3.6,4.976-5.362A14.282,14.282,0,0,1,19.5,22.739l.012.012a12.677,12.677,0,0,1,1.577,1.865C19.28,26.371,17.476,28.039,15.7,29.6Zm18.2-19.46a125.6,125.6,0,0,1-11.086,12.77,15.047,15.047,0,0,0-1.624-1.868,16.7,16.7,0,0,0-1.754-1.524c4.421-4.41,8.79-8.473,12.331-11.466a39.8,39.8,0,0,1,6.469-4.774A40.553,40.553,0,0,1,33.9,10.136Z" transform="translate(0 -0.538)"/>
    </g>
  </g>
</svg>
