<svg xmlns="http://www.w3.org/2000/svg" width="79.593" height="57.107" viewBox="0 0 79.593 57.107">
  <g id="docker-3" transform="translate(-20.887 -244.9)">
    <path id="Path_801" data-name="Path 801" d="M99.7,285.295c-.221-.185-2.215-1.7-6.5-1.7a20.65,20.65,0,0,0-3.359.3,12.656,12.656,0,0,0-5.685-8.527l-1.144-.664-.738,1.071a15.785,15.785,0,0,0-2.03,4.725,11.217,11.217,0,0,0,1.329,8.823,15.662,15.662,0,0,1-5.8,1.4H23.365a2.473,2.473,0,0,0-2.473,2.473,37.354,37.354,0,0,0,2.289,13.474c1.809,4.725,4.5,8.232,7.974,10.373,3.913,2.4,10.3,3.765,17.5,3.765a53.666,53.666,0,0,0,9.709-.886,40.066,40.066,0,0,0,12.7-4.614,34.757,34.757,0,0,0,8.638-7.088,47,47,0,0,0,8.453-14.581h.738a12.146,12.146,0,0,0,8.9-3.359,9.831,9.831,0,0,0,2.363-3.47l.332-.96Z" transform="translate(0 -18.799)" fill="#0091e2"/>
    <path id="Path_802" data-name="Path 802" d="M39.728,270.408h7.014a.622.622,0,0,0,.628-.628V263.5a.622.622,0,0,0-.628-.628H39.728a.622.622,0,0,0-.628.628v6.275A.646.646,0,0,0,39.728,270.408Zm9.672,0h7.014a.622.622,0,0,0,.628-.628V263.5a.622.622,0,0,0-.628-.628H49.4a.622.622,0,0,0-.628.628v6.275a.646.646,0,0,0,.628.628m9.856,0h7.014a.622.622,0,0,0,.628-.628V263.5a.622.622,0,0,0-.628-.628H59.255a.622.622,0,0,0-.628.628v6.275A.6.6,0,0,0,59.255,270.408Zm9.709,0h7.014a.622.622,0,0,0,.628-.628V263.5a.622.622,0,0,0-.628-.628H68.964a.622.622,0,0,0-.628.628v6.275A.622.622,0,0,0,68.964,270.408ZM49.4,261.438h7.014a.647.647,0,0,0,.628-.628v-6.275a.622.622,0,0,0-.628-.628H49.4a.622.622,0,0,0-.628.628v6.275a.675.675,0,0,0,.628.628m9.856,0h7.014a.647.647,0,0,0,.628-.628v-6.275a.622.622,0,0,0-.628-.628H59.255a.622.622,0,0,0-.628.628v6.275a.622.622,0,0,0,.628.628m9.709,0h7.014a.647.647,0,0,0,.628-.628v-6.275a.647.647,0,0,0-.628-.628H68.964a.622.622,0,0,0-.628.628v6.275a.647.647,0,0,0,.628.628m0-9.007h7.014a.622.622,0,0,0,.628-.628v-6.275a.647.647,0,0,0-.628-.628H68.964a.622.622,0,0,0-.628.628V251.8a.647.647,0,0,0,.628.628m9.782,17.977H85.76a.622.622,0,0,0,.628-.628V263.5a.622.622,0,0,0-.628-.628H78.746a.622.622,0,0,0-.628.628v6.275a.646.646,0,0,0,.628.628" transform="translate(-11.49)" fill="#0091e2"/>
  </g>
</svg>
