<svg xmlns="http://www.w3.org/2000/svg" xmlns:xlink="http://www.w3.org/1999/xlink" width="25" height="25" viewBox="0 0 25 25">
  <defs>
    <clipPath id="clip-path">
      <circle id="Ellipse_204" data-name="Ellipse 204" cx="12.5" cy="12.5" r="12.5" transform="translate(1719 -154)" fill="rgba(0,0,0,0.33)"/>
    </clipPath>
  </defs>
  <g id="Mask_Group_3" data-name="Mask Group 3" transform="translate(-1719 154)" clip-path="url(#clip-path)">
    <g id="united-kingdom" transform="translate(1713.992 -154)">
      <path id="Path_743" data-name="Path 743" d="M52.928,32.305l1.562-.952h0V28.859l-4.219-4.272-2.939-1.869H41.59l-.507,1.211h-6.4l-.868-1.211H28.077l-1.839,1.861s-4.818,3.43-4.9,3.456c-.04.014-.9-.479-1.723-.96V43.4l1.779-.922,5.611,2.525,1.068,2.753h5.742L35,46.788h6.061l.528.971h5.742l3.178-5.278,3.981-.864V39.124h0l-1.562-1.17V32.305Z" transform="translate(-19.619 -22.718)" fill="#60b7ff"/>
      <g id="Group_191" data-name="Group 191" transform="translate(0 0)">
        <g id="Group_176" data-name="Group 176" transform="translate(19.037 13.087)">
          <g id="Group_175" data-name="Group 175">
            <path id="Path_744" data-name="Path 744" d="M292.867,208.151v3.268a.21.21,0,0,1-.209.209h-6.949l-5.742-4.109-2.934-2.427,1.919-4.91,5.984-.508,4.447,3.32,3.486,2.493Z" transform="translate(-277.032 -199.674)" fill="#f9f7f8"/>
          </g>
        </g>
        <path id="Path_745" data-name="Path 745" d="M27.689,28.009l-1.452,1.469s-4.818,3.43-4.9,3.456c-.04.014-.9-.479-1.723-.96V48.3l1.779-.922,5.611,2.525,1.068,2.753h5.742L35,51.688H41.06l.528.971H47.33l3.178-5.278H27.689Z" transform="translate(-19.617 -27.618)" fill="#26a6fe"/>
        <path id="Path_746" data-name="Path 746" d="M299.008,291.123l5.742,4.109H311.7a.209.209,0,0,0,.2-.2s0,0,0-.007v-5.069H297.595Z" transform="translate(-277.037 -270.191)" fill="#f9f7f8"/>
        <g id="Group_177" data-name="Group 177" transform="translate(19.804 13.382)">
          <path id="Path_747" data-name="Path 747" d="M302.479,211.849v3.268a.21.21,0,0,1-.209.209h-3.226l-9.465-6.773-2.166-1.683,3-3.2,4.863,3.024Z" transform="translate(-287.412 -203.667)" fill="#fd8087"/>
        </g>
        <path id="Path_748" data-name="Path 748" d="M344.953,289.955l7.376,5.278h3.231a.209.209,0,0,0,.2-.2s0,0,0-.007v-3.268l-2.516-1.8Z" transform="translate(-320.893 -270.192)" fill="#fd8087"/>
        <g id="Group_178" data-name="Group 178" transform="translate(1.3 12.808)">
          <path id="Path_749" data-name="Path 749" d="M52.586,198.949l.665,2.2-3.157,2.883-5.742,4.109H37.194v-6.142l3.485-2.493,5.76-3.6Z" transform="translate(-37.194 -195.903)" fill="#f3f0f3"/>
        </g>
        <path id="Path_750" data-name="Path 750" d="M51.4,219.341a8.04,8.04,0,0,1-7.07-5.615l-3.651,2.28L37.194,218.5v6.142h7.158l5.742-4.109Z" transform="translate(-35.894 -199.6)" fill="#f9f7f8"/>
        <g id="Group_179" data-name="Group 179" transform="translate(1.3 13.58)">
          <path id="Path_751" data-name="Path 751" d="M53.464,207.139l.133,1.7-3.5,2.188L40.629,217.8H37.194v-3.478l7.208-5.157,4.326-2.826Z" transform="translate(-37.194 -206.341)" fill="#fd8087"/>
        </g>
        <path id="Path_752" data-name="Path 752" d="M45.147,237.986l-.744.486-7.208,5.157v3.478H40.63l8.254-5.907A8.064,8.064,0,0,1,45.147,237.986Z" transform="translate(-35.895 -222.066)" fill="#fd8087"/>
        <g id="Group_180" data-name="Group 180" transform="translate(15.506 0)">
          <path id="Path_753" data-name="Path 753" d="M248.649,26.2v2.664l-3.486,2.494-7.259,6.1-8.622-5.429,6.465-5.2,5.742-4.109h6.949a.21.21,0,0,1,.209.209V26.2Z" transform="translate(-229.283 -22.72)" fill="#f9f7f8"/>
        </g>
        <g id="Group_181" data-name="Group 181" transform="translate(17.199 0)">
          <path id="Path_754" data-name="Path 754" d="M269.855,22.927V26.2l-7.208,5.158-2.821,2.371-7.643-.493,4.772-3.741,9.465-6.772h3.226A.21.21,0,0,1,269.855,22.927Z" transform="translate(-252.182 -22.718)" fill="#fd8087"/>
        </g>
        <g id="Group_183" data-name="Group 183" transform="translate(1.3 0)">
          <g id="XMLID_480_">
            <g id="Group_182" data-name="Group 182">
              <path id="Path_755" data-name="Path 755" d="M54.753,30.085,48.89,37.2l-8.211-5.85-3.485-2.494V22.718h7.159l5.742,4.109Z" transform="translate(-37.194 -22.718)" fill="#f9f7f8"/>
            </g>
          </g>
        </g>
        <path id="Path_756" data-name="Path 756" d="M37.194,28.859l3.485,2.494,3.287,2.342V22.718H37.194v6.141Z" transform="translate(-35.894 -22.718)" fill="#f9f7f8"/>
        <g id="Group_184" data-name="Group 184" transform="translate(1.3 0)">
          <path id="Path_757" data-name="Path 757" d="M53.98,32.536,50.094,36.1,44.4,31.353,37.194,26.2V22.718h3.435l9.465,6.772Z" transform="translate(-37.194 -22.718)" fill="#fd8087"/>
        </g>
        <path id="Path_758" data-name="Path 758" d="M43.966,31.041V25.105l-3.336-2.387H37.194V26.2Z" transform="translate(-35.894 -22.718)" fill="#fd8087"/>
        <path id="Path_759" data-name="Path 759" d="M70.765,31.354h-12.9V22.719H50.093v8.635h-12.9v7.771h12.9V47.76h7.771V39.125h12.9Z" transform="translate(-35.893 -22.719)" fill="#f9f7f8"/>
        <g id="Group_188" data-name="Group 188" transform="translate(1.3 8.635)">
          <g id="Group_187" data-name="Group 187">
            <g id="Group_185" data-name="Group 185">
              <path id="Path_760" data-name="Path 760" d="M43.965,142.574V139.48H37.193v7.771h8.273A8,8,0,0,1,43.965,142.574Z" transform="translate(-37.193 -139.48)" fill="#f9f7f8"/>
            </g>
            <g id="Group_186" data-name="Group 186" transform="translate(12.9 10.9)">
              <path id="Path_761" data-name="Path 761" d="M213.537,287.1a8.049,8.049,0,0,1-1.906-.228v5.506H219.4V287.1Z" transform="translate(-211.631 -286.872)" fill="#f9f7f8"/>
            </g>
          </g>
        </g>
        <g id="Group_189" data-name="Group 189" transform="translate(1.3 0)">
          <path id="Path_762" data-name="Path 762" d="M70.765,33.52H55.7v-10.8H52.26v10.8H37.193v3.438H52.26v10.8H55.7v-10.8H70.765Z" transform="translate(-37.193 -22.719)" fill="#fd8087"/>
          <path id="Path_763" data-name="Path 763" d="M43.965,169.7v-.927H37.193v3.438h7.172A8.025,8.025,0,0,1,43.965,169.7Z" transform="translate(-37.193 -157.973)" fill="#fd8087"/>
          <path id="Path_764" data-name="Path 764" d="M240.925,289.956h3.438v5.278h-3.438Z" transform="translate(-225.858 -270.193)" fill="#fd8087"/>
        </g>
      </g>
    </g>
  </g>
</svg>
