<svg xmlns="http://www.w3.org/2000/svg" width="47.702" height="47.702" viewBox="0 0 47.702 47.702">
  <g id="settings" transform="translate(0)">
    <g id="Group_28" data-name="Group 28" transform="translate(0 16.1)">
      <g id="Group_27" data-name="Group 27" transform="translate(0)">
        <path id="Path_612" data-name="Path 612" d="M30.637,191.056c-.5-.3-1.016-.6-1.531-.9a13.329,13.329,0,0,0,0-3.1c.517-.3,1.031-.6,1.53-.9a2.011,2.011,0,0,0,.815-2.479h0l-1.1-2.648a2.011,2.011,0,0,0-2.329-1.177c-.566.141-1.144.29-1.719.445a13.332,13.332,0,0,0-2.2-2.194c.154-.576.3-1.154.445-1.72a2.011,2.011,0,0,0-1.177-2.328l-2.648-1.1a2.011,2.011,0,0,0-2.479.814c-.3.5-.6,1.015-.9,1.531a13.334,13.334,0,0,0-3.1,0c-.3-.517-.6-1.032-.9-1.53a2.011,2.011,0,0,0-2.479-.814l-2.648,1.1a2.011,2.011,0,0,0-1.177,2.328c.141.567.291,1.145.445,1.719a13.325,13.325,0,0,0-2.194,2.2c-.577-.155-1.155-.3-1.72-.445a2.011,2.011,0,0,0-2.329,1.177l-1.1,2.648a2.011,2.011,0,0,0,.814,2.478c.5.3,1.016.6,1.531.9a13.339,13.339,0,0,0,0,3.1c-.516.3-1.03.6-1.531.9a2.011,2.011,0,0,0-.814,2.479l1.1,2.648a2.011,2.011,0,0,0,2.329,1.177c.565-.141,1.143-.29,1.719-.445a13.34,13.34,0,0,0,2.2,2.194c-.155.577-.3,1.155-.445,1.72a2.011,2.011,0,0,0,1.177,2.328l2.648,1.1a1.979,1.979,0,0,0,.758.15,2.011,2.011,0,0,0,1.721-.965c.3-.5.6-1.011.9-1.531a13.355,13.355,0,0,0,3.1,0c.3.514.6,1.028.9,1.53a2.011,2.011,0,0,0,2.479.814l2.648-1.1a2.011,2.011,0,0,0,1.177-2.328c-.14-.562-.29-1.14-.445-1.719a13.34,13.34,0,0,0,2.194-2.2c.576.154,1.154.3,1.72.445a2.011,2.011,0,0,0,2.329-1.177l1.1-2.648A2.011,2.011,0,0,0,30.637,191.056Zm-2.211,4.2c-.544-.136-1.1-.28-1.649-.429a2,2,0,0,0-2.1.7,11.194,11.194,0,0,1-1.954,1.954,1.994,1.994,0,0,0-.7,2.1c.149.555.293,1.109.429,1.649l-2.434,1.008c-.289-.483-.579-.977-.863-1.469a2,2,0,0,0-1.977-.989,11.208,11.208,0,0,1-2.763,0,1.994,1.994,0,0,0-1.978.989c-.287.5-.577.992-.863,1.47l-2.434-1.008c.136-.543.28-1.1.429-1.649a2,2,0,0,0-.7-2.1,11.2,11.2,0,0,1-1.954-1.953,1.994,1.994,0,0,0-2.1-.7c-.552.149-1.106.293-1.649.429l-1.008-2.434c.481-.288.974-.578,1.469-.863a1.994,1.994,0,0,0,.989-1.977,11.208,11.208,0,0,1,0-2.763,2,2,0,0,0-.989-1.978c-.494-.285-.988-.574-1.469-.863l1.008-2.434c.542.136,1.1.28,1.649.429a2,2,0,0,0,2.1-.7,11.192,11.192,0,0,1,1.953-1.954,1.994,1.994,0,0,0,.7-2.1c-.148-.55-.292-1.1-.429-1.649l2.434-1.008c.287.479.577.973.863,1.469a1.994,1.994,0,0,0,1.977.989,11.187,11.187,0,0,1,2.763,0,2,2,0,0,0,1.978-.989c.284-.494.574-.988.863-1.469l2.434,1.008c-.136.543-.28,1.1-.429,1.649a2,2,0,0,0,.7,2.1,11.2,11.2,0,0,1,1.954,1.953,1.994,1.994,0,0,0,2.1.7c.551-.149,1.105-.293,1.649-.429l1.008,2.434c-.48.288-.974.578-1.469.863a1.994,1.994,0,0,0-.989,1.977,11.2,11.2,0,0,1,0,2.763,2,2,0,0,0,.989,1.978c.493.284.987.574,1.469.863Z" transform="translate(0 -172.801)"/>
      </g>
    </g>
    <g id="Group_30" data-name="Group 30" transform="translate(8.524 24.624)">
      <g id="Group_29" data-name="Group 29">
        <path id="Path_613" data-name="Path 613" d="M105.494,268.785h0a7.285,7.285,0,1,0-3.938,9.508A7.285,7.285,0,0,0,105.494,268.785Zm-4.755,7.535a5.142,5.142,0,1,1,2.783-6.718A5.109,5.109,0,0,1,100.738,276.321Z" transform="translate(-91.494 -264.293)"/>
      </g>
    </g>
    <g id="Group_32" data-name="Group 32" transform="translate(23.464)">
      <g id="Group_31" data-name="Group 31">
        <path id="Path_614" data-name="Path 614" d="M274.646,9.4c-.369-.055-.747-.109-1.128-.16a9.937,9.937,0,0,0-.765-1.846c.233-.305.463-.611.685-.911a1.7,1.7,0,0,0-.166-2.2L271.8,2.813a1.7,1.7,0,0,0-2.2-.166c-.3.223-.607.453-.911.685a9.937,9.937,0,0,0-1.846-.765c-.051-.381-.1-.76-.159-1.128A1.7,1.7,0,0,0,265.007,0h-2.083a1.7,1.7,0,0,0-1.673,1.439c-.055.368-.109.747-.159,1.128a9.933,9.933,0,0,0-1.846.765c-.3-.233-.61-.462-.911-.685a1.7,1.7,0,0,0-2.2.166l-1.473,1.473a1.7,1.7,0,0,0-.166,2.2c.222.3.452.606.685.911a9.95,9.95,0,0,0-.765,1.846c-.381.051-.76.1-1.128.16a1.7,1.7,0,0,0-1.439,1.673V13.16a1.7,1.7,0,0,0,1.439,1.673c.369.055.747.109,1.128.16a9.945,9.945,0,0,0,.765,1.846c-.233.3-.463.61-.685.911a1.7,1.7,0,0,0,.166,2.2l1.473,1.473a1.7,1.7,0,0,0,2.2.166c.3-.223.607-.453.911-.685a9.941,9.941,0,0,0,1.847.765c.051.381.1.76.16,1.128a1.7,1.7,0,0,0,1.673,1.439h2.083a1.7,1.7,0,0,0,1.673-1.439c.055-.369.109-.747.159-1.128a9.927,9.927,0,0,0,1.846-.765c.3.233.61.462.911.685a1.7,1.7,0,0,0,2.2-.166l1.473-1.473a1.7,1.7,0,0,0,.166-2.2c-.222-.3-.452-.606-.685-.911a9.94,9.94,0,0,0,.765-1.846c.381-.051.76-.1,1.128-.16a1.7,1.7,0,0,0,1.439-1.673V11.078A1.7,1.7,0,0,0,274.646,9.4Zm-.589,3.466c-.335.049-.676.1-1.019.14a1.687,1.687,0,0,0-1.413,1.225,7.9,7.9,0,0,1-.746,1.8,1.687,1.687,0,0,0,.132,1.866c.21.273.419.548.621.82l-1.062,1.063c-.273-.2-.547-.412-.82-.621a1.688,1.688,0,0,0-1.866-.132,7.9,7.9,0,0,1-1.8.746,1.687,1.687,0,0,0-1.225,1.413c-.045.343-.092.684-.14,1.019h-1.5c-.049-.335-.1-.676-.14-1.018a1.687,1.687,0,0,0-1.225-1.413,7.9,7.9,0,0,1-1.8-.746,1.687,1.687,0,0,0-1.866.132c-.273.21-.547.418-.82.621L256.3,18.723c.2-.272.411-.547.622-.82a1.688,1.688,0,0,0,.132-1.866,7.9,7.9,0,0,1-.746-1.8,1.687,1.687,0,0,0-1.413-1.225c-.343-.045-.684-.092-1.019-.14v-1.5c.335-.049.676-.1,1.019-.14A1.687,1.687,0,0,0,256.307,10a7.9,7.9,0,0,1,.746-1.8,1.688,1.688,0,0,0-.132-1.866c-.21-.274-.419-.548-.621-.82l1.063-1.063c.272.2.547.412.82.621a1.687,1.687,0,0,0,1.867.132,7.9,7.9,0,0,1,1.8-.746,1.687,1.687,0,0,0,1.225-1.413c.045-.343.092-.684.14-1.019h1.5c.049.335.1.676.14,1.018a1.687,1.687,0,0,0,1.225,1.413,7.9,7.9,0,0,1,1.8.746,1.688,1.688,0,0,0,1.866-.132c.273-.21.547-.418.82-.621l1.063,1.063c-.2.272-.411.547-.621.82a1.688,1.688,0,0,0-.132,1.866,7.9,7.9,0,0,1,.746,1.8,1.687,1.687,0,0,0,1.413,1.225c.343.045.684.092,1.019.14Z" transform="translate(-251.847)"/>
      </g>
    </g>
    <g id="Group_34" data-name="Group 34" transform="translate(31.26 7.796)">
      <g id="Group_33" data-name="Group 33">
        <path id="Path_615" data-name="Path 615" d="M339.846,83.675A4.323,4.323,0,1,0,344.169,88,4.328,4.328,0,0,0,339.846,83.675Zm0,6.724a2.4,2.4,0,1,1,2.4-2.4A2.4,2.4,0,0,1,339.846,90.4Z" transform="translate(-335.523 -83.675)"/>
      </g>
    </g>
  </g>
</svg>
