<svg xmlns="http://www.w3.org/2000/svg" width="22.318" height="22.062" viewBox="0 0 22.318 22.062">
  <path id="git" d="M11.159,0A11.232,11.232,0,0,0,0,11.31,11.29,11.29,0,0,0,7.63,22.04c.558.1.767-.24.767-.537,0-.269-.014-1.159-.014-2.106-2.8.523-3.529-.693-3.752-1.329a4.111,4.111,0,0,0-1.144-1.6c-.391-.212-.948-.735-.014-.749A2.234,2.234,0,0,1,5.189,16.88a2.367,2.367,0,0,0,3.25.933A2.391,2.391,0,0,1,9.15,16.3c-2.483-.283-5.077-1.258-5.077-5.584a4.435,4.435,0,0,1,1.144-3.04,4.115,4.115,0,0,1,.112-3s.935-.3,3.069,1.159a10.385,10.385,0,0,1,5.579,0c2.134-1.47,3.069-1.159,3.069-1.159a4.115,4.115,0,0,1,.112,3,4.409,4.409,0,0,1,1.144,3.04c0,4.34-2.608,5.3-5.091,5.584a2.7,2.7,0,0,1,.753,2.092c0,1.513-.014,2.728-.014,3.11,0,.3.209.65.767.537a11.317,11.317,0,0,0,7.6-10.73A11.232,11.232,0,0,0,11.159,0Z" fill-rule="evenodd"/>
</svg>
