<svg xmlns="http://www.w3.org/2000/svg" width="24.497" height="24.499" viewBox="0 0 24.497 24.499">
  <path id="home" d="M23.838,10.656l0,0L13.843.661a2.255,2.255,0,0,0-3.19,0L.665,10.649l-.01.01a2.254,2.254,0,0,0,1.5,3.843q.034,0,.07,0h.4V21.86A2.643,2.643,0,0,0,5.263,24.5h3.91a.718.718,0,0,0,.718-.718V18.016a1.206,1.206,0,0,1,1.2-1.2H13.4a1.206,1.206,0,0,1,1.2,1.2v5.766a.718.718,0,0,0,.718.718h3.91a2.643,2.643,0,0,0,2.64-2.639V14.505h.369a2.256,2.256,0,0,0,1.6-3.849Zm0,0" transform="translate(0.001)"/>
</svg>
