<svg id="Layer_2" data-name="Layer 2" xmlns="http://www.w3.org/2000/svg" width="59.865" height="64.372" viewBox="0 0 59.865 64.372">
  <g id="Layer_1" data-name="Layer 1">
    <path id="Path_780" data-name="Path 780" d="M29.868,0h0L0,10.718,4.506,50.242l25.362,14.13h0l25.395-14.13,4.6-39.524Z" fill="#4caf50"/>
    <path id="Path_781" data-name="Path 781" d="M92.8,0V7.145h0V39.653h0V64.372h0l25.395-14.13,4.6-39.524Z" transform="translate(-62.932)" fill="#388e3c"/>
    <path id="Path_782" data-name="Path 782" d="M59.092,82.185A16.093,16.093,0,0,1,43,66.092,15.868,15.868,0,0,1,52.14,51.641a14,14,0,0,1,3.412-1.223A13.228,13.228,0,0,1,58.964,50,16.335,16.335,0,0,1,75.185,66.092a15.932,15.932,0,0,1-5.568,12.134,15.353,15.353,0,0,1-6.984,3.54A13.679,13.679,0,0,1,59.092,82.185Zm-.129-30.866a12.553,12.553,0,0,0-3.122.354A15.192,15.192,0,0,0,52.72,52.8a14.612,14.612,0,0,0-8.4,13.293A14.805,14.805,0,0,0,59.092,80.865a14.581,14.581,0,0,0,3.251-.354,13.872,13.872,0,0,0,6.4-3.283A14.645,14.645,0,0,0,73.9,66.092,15.038,15.038,0,0,0,58.964,51.319Z" transform="translate(-29.16 -33.906)" fill="#fff"/>
    <rect id="Rectangle_45" data-name="Rectangle 45" width="1.255" height="29.54" transform="translate(29.257 17.413)" fill="#fff"/>
    <path id="Path_783" data-name="Path 783" d="M72.659,82.7c-5.246,0-9.559-6.92-9.559-15.449S67.413,51.8,72.659,51.8s9.559,6.92,9.559,15.449S77.938,82.7,72.659,82.7Zm0-29.643c-4.57,0-8.3,6.373-8.3,14.194s3.734,14.194,8.3,14.194,8.3-6.373,8.3-14.194-3.734-14.194-8.3-14.194Z" transform="translate(-42.791 -35.128)" fill="#fff"/>
    <rect id="Rectangle_46" data-name="Rectangle 46" width="29.547" height="1.258" transform="translate(15.16 31.51)" fill="#fff"/>
    <rect id="Rectangle_47" data-name="Rectangle 47" width="25.91" height="1.258" transform="translate(17.058 24.461)" fill="#fff"/>
    <rect id="Rectangle_48" data-name="Rectangle 48" width="25.91" height="1.258" transform="translate(17.058 37.915)" fill="#fff"/>
  </g>
</svg>
