<svg xmlns="http://www.w3.org/2000/svg" width="19.871" height="19.868" viewBox="0 0 19.871 19.868">
  <path id="Subtraction_2" data-name="Subtraction 2" d="M11.111,21.04c-3.222,0-3.617-.008-4.9-.065a6.835,6.835,0,0,1-2.254-.422,3.728,3.728,0,0,1-1.394-.9,3.807,3.807,0,0,1-.906-1.394A6.72,6.72,0,0,1,1.246,16c-.054-1.251-.07-1.629-.07-4.9s.016-3.649.07-4.9a6.836,6.836,0,0,1,.415-2.255,3.785,3.785,0,0,1,.906-1.392,3.764,3.764,0,0,1,1.394-.906,6.907,6.907,0,0,1,2.254-.42c1.122-.052,1.547-.067,3.809-.067h1.087c3.242,0,3.626.016,4.9.067a6.889,6.889,0,0,1,2.248.42,3.755,3.755,0,0,1,1.394.906,3.693,3.693,0,0,1,.906,1.392,6.7,6.7,0,0,1,.42,2.255c.055,1.24.072,1.614.072,4.9s-.017,3.653-.072,4.9a6.715,6.715,0,0,1-.42,2.25,3.713,3.713,0,0,1-.906,1.394,3.62,3.62,0,0,1-1.394.9,6.736,6.736,0,0,1-2.248.422C14.722,21.032,14.325,21.04,11.111,21.04Zm0-16.155a6.22,6.22,0,1,0,6.217,6.223A6.23,6.23,0,0,0,11.111,4.885Zm6.469-1.7a1.454,1.454,0,1,0,1.454,1.454A1.459,1.459,0,0,0,17.58,3.185Zm-6.469,11.96a4.037,4.037,0,1,1,4.035-4.037A4.041,4.041,0,0,1,11.111,15.145Z" transform="translate(-1.175 -1.172)"/>
</svg>
