<svg xmlns="http://www.w3.org/2000/svg" width="55.166" height="55.316" viewBox="0 0 55.166 55.316">
  <g id="jwtio-json-web-token" transform="translate(-315 -311.3)">
    <path id="Path_794" data-name="Path 794" d="M587.756,326.18,587.7,311.3h-8.3l.053,14.88,4.152,5.7Zm-8.3,25.5v14.933h8.3V351.683l-4.152-5.7Z" transform="translate(-240.995)" fill="#fff" fill-rule="evenodd"/>
    <path id="Path_795" data-name="Path 795" d="M428.794,380.668l8.746,12.065,6.692-4.869L435.486,375.8l-6.692-2.16Zm-8.3-25.5-8.8-12.065L405,347.969l8.746,12.056,6.745,2.16Z" transform="translate(-82.033 -28.985)" fill="#00f2e6" fill-rule="evenodd"/>
    <path id="Path_796" data-name="Path 796" d="M331.713,487.094,317.549,482.5,315,490.352,329.163,495l6.692-2.213ZM349.3,497.159l4.152,5.7,14.163,4.594,2.549-7.852L356,495.008Z" transform="translate(0 -156.045)" fill="#00b9f1" fill-rule="evenodd"/>
    <path id="Path_797" data-name="Path 797" d="M355.994,495.1l14.163-4.647-2.549-7.852-14.163,4.594-4.152,5.7Zm-26.83,0L315,499.693l2.549,7.852,14.163-4.594,4.152-5.7Z" transform="translate(0 -156.136)" fill="#d63aff" fill-rule="evenodd"/>
    <path id="Path_798" data-name="Path 798" d="M413.746,375.8,405,387.865l6.692,4.869,8.8-12.065v-7.029Zm21.741-15.765,8.746-12.065L437.54,343.1l-8.746,12.056v7.028Z" transform="translate(-82.033 -28.985)" fill="#fb015b" fill-rule="evenodd"/>
  </g>
</svg>
