<svg xmlns="http://www.w3.org/2000/svg" width="64.216" height="62.532" viewBox="0 0 64.216 62.532">
  <g id="kubernets" transform="translate(-0.532 -0.165)">
    <path id="Path_803" data-name="Path 803" d="M24.045,64.421a4.9,4.9,0,0,1-3.862-1.868L5.651,44.49A4.875,4.875,0,0,1,4.7,40.255l5.19-22.546a4.911,4.911,0,0,1,2.7-3.363L33.595,4.3a4.928,4.928,0,0,1,4.318,0L58.923,14.3a4.912,4.912,0,0,1,2.7,3.363l5.19,22.546a5.009,5.009,0,0,1-.955,4.235L51.325,62.511a5.027,5.027,0,0,1-3.862,1.868l-23.418.041Z" transform="translate(-3.01 -2.72)" fill="#326de6"/>
    <path id="Path_804" data-name="Path 804" d="M32.7,2.117a4.061,4.061,0,0,1,1.7.374L55.415,12.5a4.032,4.032,0,0,1,2.159,2.7l5.19,22.546a3.883,3.883,0,0,1-.789,3.4L47.442,59.209A3.956,3.956,0,0,1,44.328,60.7H21.034a3.956,3.956,0,0,1-3.114-1.495L3.388,41.147a4.156,4.156,0,0,1-.789-3.4L7.789,15.2a3.965,3.965,0,0,1,2.159-2.7L30.958,2.449A5,5,0,0,1,32.7,2.117Zm0-1.952a6.285,6.285,0,0,0-2.574.581L9.118,10.795a5.88,5.88,0,0,0-3.239,4.027L.689,37.369a5.888,5.888,0,0,0,1.163,5.066L16.384,60.5a5.866,5.866,0,0,0,4.609,2.2H44.286A5.866,5.866,0,0,0,48.9,60.5L63.428,42.434a5.857,5.857,0,0,0,1.162-5.066L59.4,14.822a5.88,5.88,0,0,0-3.239-4.027L35.235.746A5.957,5.957,0,0,0,32.7.165Z" transform="translate(0)" fill="#fff"/>
    <path id="Path_805" data-name="Path 805" d="M84.081,64.518h-.041c-.041,0-.083,0-.083-.041-.083,0-.166-.041-.249-.041a5.677,5.677,0,0,0-.789-.083,1.551,1.551,0,0,1-.415-.042h-.041a10.954,10.954,0,0,1-2.242-.374.81.81,0,0,1-.457-.457c0-.041-.041-.041-.041-.083l-.54-.166a16.424,16.424,0,0,0-.291-5.855,17.109,17.109,0,0,0-2.325-5.439l.415-.374V51.48a.939.939,0,0,1,.207-.623,12.115,12.115,0,0,1,1.869-1.287c.124-.083.249-.124.374-.208a6.218,6.218,0,0,0,.706-.415c.041-.041.124-.083.208-.166.041-.042.083-.042.083-.083a1.387,1.387,0,0,0,.291-1.869,1.181,1.181,0,0,0-.955-.457,1.543,1.543,0,0,0-.913.332l-.083.083c-.083.041-.125.125-.208.166a6.861,6.861,0,0,0-.54.581,1.908,1.908,0,0,1-.291.291,10.555,10.555,0,0,1-1.661,1.495.67.67,0,0,1-.374.125.524.524,0,0,1-.249-.042h-.083l-.5.332a20.185,20.185,0,0,0-1.7-1.578,16.582,16.582,0,0,0-8.678-3.446l-.041-.54-.083-.083a.869.869,0,0,1-.332-.54,14.586,14.586,0,0,1,.125-2.242v-.041a1.477,1.477,0,0,1,.083-.415c.041-.249.083-.5.125-.789v-.374a1.267,1.267,0,0,0-2.2-.955,1.316,1.316,0,0,0-.374.955v.332a2.42,2.42,0,0,0,.124.789c.041.125.041.249.083.415v.041a10.738,10.738,0,0,1,.125,2.242.868.868,0,0,1-.332.54l-.083.083-.042.54A20.822,20.822,0,0,0,59.417,45a16.008,16.008,0,0,0-8.221,4.65l-.415-.291H50.7c-.083,0-.166.041-.249.041a.671.671,0,0,1-.374-.124,11.008,11.008,0,0,1-1.661-1.536,1.908,1.908,0,0,0-.291-.291,6.868,6.868,0,0,0-.54-.581c-.041-.042-.124-.083-.207-.166-.041-.041-.083-.041-.083-.083a1.451,1.451,0,0,0-.914-.332,1.181,1.181,0,0,0-.955.457,1.387,1.387,0,0,0,.291,1.868c.041,0,.041.042.083.042.083.041.125.124.208.166a6.3,6.3,0,0,0,.706.415,1.676,1.676,0,0,1,.374.208,12.106,12.106,0,0,1,1.868,1.287.762.762,0,0,1,.208.623v.083l.415.374a1.467,1.467,0,0,0-.208.332,16.172,16.172,0,0,0-2.325,10.962l-.54.166c0,.042-.041.042-.041.083a.965.965,0,0,1-.457.457,10.475,10.475,0,0,1-2.242.374h-.042a1.413,1.413,0,0,0-.415.041,5.677,5.677,0,0,0-.789.083c-.083,0-.166.042-.249.042a.153.153,0,0,0-.125.041,1.361,1.361,0,0,0-1.08,1.536,1.28,1.28,0,0,0,1.329.955.911.911,0,0,0,.332-.042c.041,0,.083,0,.083-.041.083,0,.166-.041.249-.041a3.98,3.98,0,0,0,.748-.291c.124-.041.249-.125.374-.166h.041a10.182,10.182,0,0,1,2.159-.623h.083a.923.923,0,0,1,.54.208c.041,0,.041.041.083.041l.581-.083a16.423,16.423,0,0,0,5.439,7.806,16.839,16.839,0,0,0,1.785,1.2l-.249.54c0,.042.041.042.041.083a.854.854,0,0,1,.083.664,11.683,11.683,0,0,1-1.08,1.952v.041c-.083.125-.166.208-.249.332-.166.208-.291.415-.457.664a.9.9,0,0,0-.124.208.145.145,0,0,1-.041.083,1.313,1.313,0,0,0,.54,1.785,1.106,1.106,0,0,0,.5.125,1.493,1.493,0,0,0,1.246-.789.145.145,0,0,1,.041-.083.915.915,0,0,1,.124-.208,7.8,7.8,0,0,0,.249-.747l.125-.374a9.762,9.762,0,0,1,.872-2.076,1.067,1.067,0,0,1,.54-.374c.041,0,.041,0,.083-.041l.291-.54a16.221,16.221,0,0,0,5.813,1.08,15.075,15.075,0,0,0,3.613-.415,18.446,18.446,0,0,0,2.159-.623l.249.457c.042,0,.042,0,.083.041a.77.77,0,0,1,.54.374,14.22,14.22,0,0,1,.872,2.076v.041l.125.374a5.262,5.262,0,0,0,.249.747c.042.083.083.125.125.208a.145.145,0,0,0,.042.083,1.41,1.41,0,0,0,1.245.789,1.106,1.106,0,0,0,.5-.125,1.237,1.237,0,0,0,.623-.747,1.5,1.5,0,0,0-.083-1.038c0-.041-.042-.041-.042-.083a.915.915,0,0,0-.124-.208,3.767,3.767,0,0,0-.457-.664c-.083-.124-.166-.207-.249-.332V78.1a9.3,9.3,0,0,1-1.08-1.952,1.158,1.158,0,0,1,.041-.664c0-.041.041-.041.041-.083l-.208-.5a16.47,16.47,0,0,0,7.225-9.093l.5.083c.042,0,.042-.041.083-.041a1.057,1.057,0,0,1,.54-.207h.083a10.185,10.185,0,0,1,2.159.623h.041c.124.041.249.124.374.166a4,4,0,0,0,.747.291c.083,0,.166.041.249.041a.152.152,0,0,1,.124.041.916.916,0,0,0,.332.041,1.4,1.4,0,0,0,1.329-.955,1.6,1.6,0,0,0-1.2-1.37ZM64.856,62.484l-1.827.872L61.2,62.484l-.457-1.951,1.245-1.578h2.035l1.246,1.578-.415,1.951Zm10.837-4.318a13.093,13.093,0,0,1,.291,4.193l-6.353-1.827a1.126,1.126,0,0,1-.789-1.329.99.99,0,0,1,.249-.457l5.024-4.526a13.316,13.316,0,0,1,1.578,3.945ZM72.123,51.73l-5.439,3.862a1.106,1.106,0,0,1-1.453-.249.926.926,0,0,1-.208-.457l-.374-6.768a12.6,12.6,0,0,1,7.474,3.613ZM60.081,48.324c.457-.083.872-.166,1.329-.249l-.374,6.643a1.136,1.136,0,0,1-1.121,1.08.988.988,0,0,1-.5-.124L53.894,51.73a12.667,12.667,0,0,1,6.187-3.4Zm-8.18,5.9,4.941,4.4a1.106,1.106,0,0,1,.125,1.536.829.829,0,0,1-.5.332l-6.436,1.868A13.367,13.367,0,0,1,51.9,54.22ZM50.78,65.473l6.6-1.121a1.12,1.12,0,0,1,1.162.872,1.188,1.188,0,0,1-.041.664l-2.533,6.1a13.089,13.089,0,0,1-5.19-6.519Zm15.156,8.263a13.559,13.559,0,0,1-2.907.332,14.062,14.062,0,0,1-4.193-.664l3.28-5.938a1.09,1.09,0,0,1,1.329-.291,1.77,1.77,0,0,1,.5.457l3.2,5.772c-.374.124-.789.208-1.2.332Zm8.1-5.771a13.181,13.181,0,0,1-3.986,4.027l-2.616-6.27a1.118,1.118,0,0,1,.581-1.287,1.326,1.326,0,0,1,.581-.124l6.644,1.121a8.359,8.359,0,0,1-1.2,2.533Z" transform="translate(-30.327 -28.561)" fill="#fff"/>
  </g>
</svg>
