<svg xmlns="http://www.w3.org/2000/svg" width="16.687" height="11.733" viewBox="0 0 16.687 11.733">
  <g id="mail" transform="translate(0 -76)">
    <g id="Group_52" data-name="Group 52" transform="translate(0 76)">
      <path id="Path_632" data-name="Path 632" d="M15.22,76H1.467A1.469,1.469,0,0,0,0,77.467v8.8a1.469,1.469,0,0,0,1.467,1.467H15.22a1.468,1.468,0,0,0,1.467-1.467v-8.8A1.468,1.468,0,0,0,15.22,76Zm-.205.978-5.634,5.6a1.467,1.467,0,0,1-2.075,0l-5.633-5.6ZM.978,86.067v-8.4l4.225,4.2Zm.695.688,4.223-4.2.719.715a2.444,2.444,0,0,0,3.456,0l.72-.716,4.223,4.2Zm14.036-.688-4.225-4.2,4.225-4.2Z" transform="translate(0 -76)"/>
    </g>
  </g>
</svg>
