<svg id="Layer_2_1_" xmlns="http://www.w3.org/2000/svg" width="62.706" height="61.138" viewBox="0 0 62.706 61.138">
  <g id="Surfaces">
    <g id="Photo_Surface">
      <g id="Outline_no_shadow">
        <path id="Path_768" data-name="Path 768" d="M11.1,0H51.6a11.1,11.1,0,0,1,11.1,11.1v38.93a11.1,11.1,0,0,1-11.1,11.1H11.1A11.1,11.1,0,0,1,0,50.034V11.1A11.1,11.1,0,0,1,11.1,0Z" fill="#001e36"/>
      </g>
    </g>
  </g>
  <g id="Outlined_Mnemonics_Logos" transform="translate(14.109 15.546)">
    <g id="Ps">
      <path id="Path_769" data-name="Path 769" d="M54,86.829V59.944c0-.183.078-.287.261-.287.444,0,.862,0,1.463-.026.627-.026,1.28-.026,1.986-.052s1.463-.026,2.273-.052,1.594-.026,2.378-.026a15.363,15.363,0,0,1,5.382.81,9.33,9.33,0,0,1,3.5,2.142,8.319,8.319,0,0,1,1.907,2.979,10,10,0,0,1,.6,3.4,9.341,9.341,0,0,1-1.568,5.565,8.951,8.951,0,0,1-4.207,3.188,16.933,16.933,0,0,1-5.879.888c-.627,0-1.045,0-1.306-.026s-.627-.026-1.123-.026V86.8a.325.325,0,0,1-.287.366H54.314C54.1,87.169,54,87.065,54,86.829ZM59.7,64.7v8.779c.366.026.705.052,1.019.052H62.1a9.76,9.76,0,0,0,3-.47,4.493,4.493,0,0,0,2.142-1.385,4.037,4.037,0,0,0,.81-2.691,4.3,4.3,0,0,0-.6-2.325,3.789,3.789,0,0,0-1.829-1.489,7.667,7.667,0,0,0-3.083-.523c-.679,0-1.28,0-1.777.026A5.981,5.981,0,0,0,59.7,64.7Z" transform="translate(-54 -59.5)" fill="#31a8ff"/>
      <path id="Path_770" data-name="Path 770" d="M153.8,90.2a9.247,9.247,0,0,0-2.508-.888,13.773,13.773,0,0,0-2.926-.34,5.26,5.26,0,0,0-1.568.183,1.341,1.341,0,0,0-.81.523,1.385,1.385,0,0,0-.209.705,1.162,1.162,0,0,0,.261.679,2.948,2.948,0,0,0,.888.705c.6.314,1.228.6,1.855.862a18.924,18.924,0,0,1,4.024,1.907,6.08,6.08,0,0,1,2.064,2.169,5.64,5.64,0,0,1,.6,2.691,6.079,6.079,0,0,1-1.019,3.475,6.547,6.547,0,0,1-2.926,2.325,11.971,11.971,0,0,1-4.729.836,18,18,0,0,1-3.553-.34,10.539,10.539,0,0,1-2.665-.836.514.514,0,0,1-.287-.5V99.82a.284.284,0,0,1,.1-.235.2.2,0,0,1,.235.026,11.184,11.184,0,0,0,3.24,1.28,12.163,12.163,0,0,0,3.083.392,4.987,4.987,0,0,0,2.169-.366,1.214,1.214,0,0,0,.705-1.1,1.384,1.384,0,0,0-.627-1.045,11.081,11.081,0,0,0-2.561-1.228,15.986,15.986,0,0,1-3.71-1.881,6.765,6.765,0,0,1-1.986-2.221,5.606,5.606,0,0,1-.6-2.665,6.145,6.145,0,0,1,.888-3.161,6.441,6.441,0,0,1,2.743-2.4A10.132,10.132,0,0,1,148.6,84.3a22.524,22.524,0,0,1,3.24.235,9.193,9.193,0,0,1,2.247.6.459.459,0,0,1,.261.235,1.311,1.311,0,0,1,.052.314v4.259a.322.322,0,0,1-.131.261A.7.7,0,0,1,153.8,90.2Z" transform="translate(-117.743 -77.82)" fill="#31a8ff"/>
    </g>
  </g>
</svg>
