<svg xmlns="http://www.w3.org/2000/svg" width="81.468" height="72.774" viewBox="0 0 81.468 72.774">
  <path id="puzzle" d="M71.329,52.385,81.468,42.248,71.329,32.11l1.633-1.633a7.248,7.248,0,0,0-10.25-10.251L61.08,21.859,50.941,11.721l-7.771,7.771V9.558H28.834V7.248a7.248,7.248,0,1,0-14.5,0v2.31H0V28.674H7.089a2.469,2.469,0,1,1,0,4.938H0V52.729H19.116V45.958a2.469,2.469,0,1,1,4.938,0v6.771H42.933a2.461,2.461,0,0,1-.722,1.74l-4.788,4.788L50.941,72.774,61.08,62.636l1.408,1.408A7.248,7.248,0,0,0,72.738,53.794ZM38.392,33.613V47.95H28.834V45.958a7.248,7.248,0,1,0-14.5,0V47.95H4.779V38.392h2.31a7.248,7.248,0,1,0,0-14.5H4.779V14.337H19.116V7.248a2.469,2.469,0,1,1,4.938,0v7.089H38.392V28.674h6.77a2.469,2.469,0,1,1,0,4.938ZM69.359,60.665a2.472,2.472,0,0,1-3.492,0L61.08,55.878,50.941,66.015l-6.759-6.758,1.408-1.408A7.248,7.248,0,0,0,43.171,46V38.392h1.991A7.248,7.248,0,0,0,45.517,23.9l5.424-5.424L61.08,28.618l5.013-5.012A2.469,2.469,0,1,1,69.584,27.1L64.571,32.11,74.709,42.248,64.571,52.386l4.787,4.787A2.472,2.472,0,0,1,69.359,60.665Zm0,0"/>
</svg>
