<svg xmlns="http://www.w3.org/2000/svg" xmlns:xlink="http://www.w3.org/1999/xlink" width="54.486" height="53.725" viewBox="0 0 54.486 53.725">
  <defs>
    <linearGradient id="linear-gradient" x1="0.119" y1="0.92" x2="0.629" y2="0.366" gradientUnits="objectBoundingBox">
      <stop offset="0" stop-color="#e01d84"/>
      <stop offset="0.401" stop-color="#df1d85"/>
      <stop offset="0.77" stop-color="#932c87"/>
      <stop offset="1" stop-color="#5d2f88"/>
    </linearGradient>
    <radialGradient id="radial-gradient" cx="0.776" cy="0.333" r="0.773" gradientTransform="matrix(0.734, 0.002, -0.001, 0.836, 0.207, 0.053)" gradientUnits="objectBoundingBox">
      <stop offset="0" stop-color="#e01d84"/>
      <stop offset="0.139" stop-color="#de1e85"/>
      <stop offset="0.285" stop-color="#d62085"/>
      <stop offset="0.434" stop-color="#c92386"/>
      <stop offset="0.586" stop-color="#b72786"/>
      <stop offset="0.739" stop-color="#9d2b87"/>
      <stop offset="0.891" stop-color="#7c2e88"/>
      <stop offset="1" stop-color="#5d2f88"/>
    </radialGradient>
    <linearGradient id="linear-gradient-2" x1="-0.001" y1="0.5" x2="0.999" y2="0.5" gradientUnits="objectBoundingBox">
      <stop offset="0" stop-color="#e01d84"/>
      <stop offset="0.238" stop-color="#da1e85"/>
      <stop offset="0.658" stop-color="#c72085"/>
      <stop offset="0.999" stop-color="#b52284"/>
    </linearGradient>
  </defs>
  <g id="rxjs-1" transform="translate(-14.986 -16.719)">
    <path id="Path_806" data-name="Path 806" d="M18.126,50.789a22.857,22.857,0,0,1-.795-10.936,37.981,37.981,0,0,1,1.182-4.6,24.881,24.881,0,0,1,13-14.18,21.255,21.255,0,0,1,8.658-1.955,11.332,11.332,0,0,0-1.16-.988c-2.449-1.633-6.1-2.17-8.315.129-.666.688-1.225,1.439-1.848,2.127a6.641,6.641,0,0,1-2.557,1.783,13.365,13.365,0,0,1-2.6.408,5.593,5.593,0,0,0-2.557,1.053,3.388,3.388,0,0,0-1.2,2.492c-.086.773-.064,1.568-.107,2.342-.107,2.277-.838,2.922-2.471,4.189a6.64,6.64,0,0,0-1.7,1.934c-1.289,2.277.773,4.641.881,6.939a3.443,3.443,0,0,1-.193,1.4,5.216,5.216,0,0,1-.795,1.225A2.513,2.513,0,0,0,15.01,46a5.938,5.938,0,0,0,.773,1.869A17.653,17.653,0,0,0,18,50.7c.043,0,.086.043.129.086" transform="translate(0)" fill="#e32286"/>
    <path id="Path_807" data-name="Path 807" d="M66.466,67.832a15.64,15.64,0,0,0,7.047-5.865,16.909,16.909,0,0,0,3.051-12.934c-2.943,6.4-5.629,8.164-5.629,8.164,7.24-11.022.043-17.682.043-17.682,2.943,6.273-.967,13.922-.967,13.922-3.287,6.918-7.949,9.389-7.949,9.389a11.3,11.3,0,0,0,9.023-2.535c-7.455,8.057-15.533,7.67-15.533,7.67a11.357,11.357,0,0,0,8.486,3.48c-6.66,1.568-12.912-.645-18.047-4.92a28.308,28.308,0,0,1-2.75-2.578s-.773-.816-.924-1.031L42.3,62.89c-.107,3.975,4.039,7.67,4.039,7.67a15.458,15.458,0,0,1-8.551-19.594c2.535-6.811,10.205-8.272,10.205-8.272A50.334,50.334,0,0,0,59.7,46.734c11.322,1.891,10.678-3.652,10.678-3.652.107-4.77-7.09-9.84-7.09-9.84-12.826-9.518-24.428-3.373-24.428-3.373a24.881,24.881,0,0,0-13,14.18,37.98,37.98,0,0,0-1.182,4.6,24.114,24.114,0,0,0,4.147,17.789A30.758,30.758,0,0,0,43.478,77.65c13.428,4.555,22.6-2.148,22.6-2.148C74.523,69.7,76.22,63,76.22,63c-6.811,5.328-9.754,4.834-9.754,4.834ZM55.982,36.486a1.16,1.16,0,1,1-1.16,1.16A1.155,1.155,0,0,1,55.982,36.486Z" transform="translate(-7.348 -8.792)" fill="url(#linear-gradient)"/>
    <path id="Path_808" data-name="Path 808" d="M70.327,43.046c.107-4.77-7.09-9.84-7.09-9.84-12.826-9.5-24.428-3.352-24.428-3.352a24.881,24.881,0,0,0-13,14.18,39.847,39.847,0,0,0-1.1,4.189,24.007,24.007,0,0,0-.344,6.123,23.337,23.337,0,0,0,.881,4.705,24.349,24.349,0,0,0,.945,2.643c-.021-.064-.129-.537-.129-.537A24.231,24.231,0,0,1,26,52.649a17.337,17.337,0,0,1,3.7-7.691A12.469,12.469,0,0,1,43.472,40.79s1.934.688,2.6,1.031c.666.322,1.826.816,1.826.816a50.334,50.334,0,0,0,11.709,4.039C70.972,48.589,70.327,43.046,70.327,43.046ZM55.954,38.813a1.16,1.16,0,1,1,1.16-1.16A1.155,1.155,0,0,1,55.954,38.813Z" transform="translate(-7.32 -8.778)" fill="url(#radial-gradient)"/>
    <path id="Path_809" data-name="Path 809" d="M94.916,49.7,87.59,47.426a1.11,1.11,0,0,0-.645,0s-4.318,1.1-3.566,3.459a9.147,9.147,0,0,0,1.676,2.922l8.057-.387Z" transform="translate(-53.63 -24.072)" fill="url(#linear-gradient-2)"/>
  </g>
</svg>
