<svg xmlns="http://www.w3.org/2000/svg" width="60.344" height="60.344" viewBox="0 0 60.344 60.344">
  <g id="sass-logo" transform="translate(-4.564 -4.564)">
    <path id="Path_778" data-name="Path 778" d="M34.736,4.564A30.172,30.172,0,1,1,4.564,34.736,30.172,30.172,0,0,1,34.736,4.564" fill="#c69" fill-rule="evenodd"/>
    <path id="Path_779" data-name="Path 779" d="M117.521,60.079c-1.366-5.359-10.252-7.12-18.661-4.133a42.251,42.251,0,0,0-14.318,8.212c-4.632,4.332-5.37,8.1-5.066,9.679,1.074,5.56,8.692,9.194,11.823,11.89v.016c-.923.455-7.682,3.875-9.263,7.372-1.669,3.689.266,6.336,1.546,6.692A9.492,9.492,0,0,0,93.81,95.661a10.4,10.4,0,0,0,1.018-9.241,12.154,12.154,0,0,1,4.618-.265c5.293.618,6.331,3.923,6.133,5.306a3.49,3.49,0,0,1-1.68,2.373c-.371.23-.485.309-.453.48.045.248.217.239.533.185a4.126,4.126,0,0,0,2.879-3.678c.128-3.241-2.979-6.867-8.479-6.773a14.517,14.517,0,0,0-4.718.637c-.076-.087-.153-.173-.234-.258-3.4-3.628-9.686-6.194-9.419-11.071.1-1.773.713-6.442,12.078-12.105,9.31-4.639,16.763-3.362,18.051-.533,1.84,4.042-3.983,11.555-13.652,12.638-3.684.413-5.623-1.015-6.106-1.546-.508-.56-.584-.585-.773-.48-.309.171-.113.665,0,.96A5.73,5.73,0,0,0,97.1,75.037c1.777.583,6.1.9,11.332-1.12,5.858-2.266,10.432-8.569,9.089-13.838M92.6,87.388a7.724,7.724,0,0,1-.063,4.509q-.076.228-.166.452t-.2.441a8.43,8.43,0,0,1-1.394,2.032c-1.753,1.912-4.2,2.636-5.253,2.026-1.134-.658-.566-3.354,1.466-5.5a20.425,20.425,0,0,1,5.333-3.8l0-.009.276-.15" transform="translate(-63.858 -42.601)" fill="#fff"/>
  </g>
</svg>
