<svg xmlns="http://www.w3.org/2000/svg" width="61.844" height="61.864" viewBox="0 0 61.844 61.864">
  <g id="XMLID_00000093873504660439150730000001999826387980064446_" transform="translate(0 -0.2)">
    <g id="Group_206" data-name="Group 206" transform="translate(0 0.2)">
      <path id="Path_787" data-name="Path 787" d="M56.241,3.422c3.954,11.9,6.275,21.9,5.429,29.808A30.985,30.985,0,0,1,10.777,54.759L9.633,53.744A31.036,31.036,0,1,1,52.94,9.284,28.63,28.63,0,0,0,56.241,3.422Zm-.129,41.2c7.78-10.373,3.44-27.158-.168-37.878-3.222,6.7-11.14,11.838-17.985,13.466-6.412,1.529-12.088.275-18.025,2.561C6.379,27.994,6.6,44.158,14.063,47.79l.443.233s10.952-2.175,17.017-4.415c8.851-3.279,18.564-11.341,21.771-20.724C51.562,32.636,43.243,42.012,34.827,46.3c-4.469,2.3-7.948,2.794-15.3,5.355-.911.346-1.611.643-1.611.643,1.868-.307,3.729-.418,3.729-.418C32.12,51.391,48.461,54.83,56.113,44.625ZM14.038,53.92a2.666,2.666,0,0,0-.393-3.737,2.632,2.632,0,0,0-1.668-.6,2.658,2.658,0,1,0,2.061,4.333Z" transform="translate(0 -0.2)" fill="#77bc1f"/>
      <path id="Path_788" data-name="Path 788" d="M409.638,264.8c3.608,10.72,7.948,27.5.168,37.878-7.651,10.2-23.993,6.765-34.47,7.255,0,0-1.861.114-3.729.418,0,0,.7-.3,1.611-.643,7.354-2.561,10.834-3.061,15.3-5.355,8.416-4.286,16.735-13.659,18.467-23.414-3.2,9.383-12.92,17.445-21.771,20.724-6.065,2.239-17.017,4.415-17.017,4.415l-.443-.233c-7.458-3.633-7.683-19.8,5.872-25.015,5.934-2.291,11.613-1.034,18.025-2.564C398.5,276.638,406.416,271.5,409.638,264.8Z" transform="translate(-353.694 -258.252)" fill="#fff"/>
      <path id="Path_789" data-name="Path 789" d="M381.218,1996.6a2.645,2.645,0,1,1-1.668-.6A2.618,2.618,0,0,1,381.218,1996.6Z" transform="translate(-367.574 -1946.613)" fill="#fff"/>
    </g>
  </g>
</svg>
