<svg xmlns="http://www.w3.org/2000/svg" width="14.854" height="15.881" viewBox="0 0 14.854 15.881">
  <g id="supermarket" transform="translate(-16.772 0.2)">
    <g id="Group_54" data-name="Group 54" transform="translate(16.972)">
      <g id="Group_53" data-name="Group 53">
        <path id="Path_633" data-name="Path 633" d="M30.4,2.143v-.6A1.543,1.543,0,0,0,28.858,0H24.573a1.531,1.531,0,0,0-1.089.451l-6.06,6.06a1.541,1.541,0,0,0,0,2.179l.616.616a1.553,1.553,0,0,0-.04.349,1.531,1.531,0,0,0,.451,1.089l4.285,4.285a1.543,1.543,0,0,0,2.179,0l6.06-6.06a1.531,1.531,0,0,0,.451-1.089V3.6A1.543,1.543,0,0,0,30.4,2.143ZM18.15,7.964a.514.514,0,0,1,0-.726l6.06-6.06a.51.51,0,0,1,.363-.15h4.285a.514.514,0,0,1,.514.514v.514H25.6a1.531,1.531,0,0,0-1.089.451L18.6,8.416Zm12.1.279-6.06,6.06a.514.514,0,0,1-.726,0l-4.285-4.285a.514.514,0,0,1,0-.726l6.06-6.06a.51.51,0,0,1,.363-.15h4.285A.514.514,0,0,1,30.4,3.6V7.88h0A.51.51,0,0,1,30.249,8.243Z" transform="translate(-16.972)" stroke="#000" stroke-width="0.4"/>
      </g>
    </g>
    <g id="Group_56" data-name="Group 56" transform="translate(26.963 4.109)">
      <g id="Group_55" data-name="Group 55">
        <path id="Path_634" data-name="Path 634" d="M326.27,135.891a1.1,1.1,0,1,0,1.1,1.1A1.106,1.106,0,0,0,326.27,135.891Z" transform="translate(-325.165 -135.891)" stroke="#000" stroke-width="0.4"/>
      </g>
    </g>
  </g>
</svg>
