<svg id="Layer_2_1_" xmlns="http://www.w3.org/2000/svg" width="62.706" height="61.138" viewBox="0 0 62.706 61.138">
  <g id="Surfaces">
    <g id="UI_UX_Surface">
      <g id="Outline_no_shadow">
        <path id="Path_765" data-name="Path 765" d="M11.1,0H51.6a11.1,11.1,0,0,1,11.1,11.1v38.93a11.1,11.1,0,0,1-11.1,11.1H11.1A11.1,11.1,0,0,1,0,50.034V11.1A11.1,11.1,0,0,1,11.1,0Z" fill="#470137"/>
      </g>
    </g>
  </g>
  <g id="Outlined_Mnemonics_Logos" transform="translate(9.134 13.399)">
    <g id="Xd">
      <path id="Path_766" data-name="Path 766" d="M58.8,60.392,50.961,73.325l8.361,13.717a.45.45,0,0,1,.052.314c-.026.1-.131.026-.287.052H53.1c-.418,0-.705-.026-.888-.287-.549-1.1-1.123-2.169-1.672-3.266-.549-1.071-1.15-2.169-1.777-3.292s-1.254-2.247-1.881-3.4h-.052c-.549,1.123-1.15,2.247-1.751,3.37s-1.2,2.247-1.777,3.344c-.6,1.1-1.2,2.221-1.8,3.292-.1.261-.314.287-.6.287H35.154c-.1,0-.183.052-.183-.078a.363.363,0,0,1,.052-.287l8.126-13.325-7.917-13.4c-.078-.1-.1-.209-.052-.261a.3.3,0,0,1,.261-.1h5.931a1.542,1.542,0,0,1,.366.052.741.741,0,0,1,.261.235c.5,1.123,1.071,2.247,1.672,3.37.627,1.123,1.228,2.221,1.881,3.318.627,1.1,1.2,2.195,1.751,3.318h.052c.549-1.15,1.123-2.273,1.7-3.37s1.176-2.195,1.777-3.292,1.176-2.221,1.751-3.292a.444.444,0,0,1,.157-.261.5.5,0,0,1,.34-.052H58.59a.241.241,0,0,1,.287.183c.026.026-.026.131-.078.183Z" transform="translate(-34.961 -57.723)" fill="#ff61f6"/>
      <path id="Path_767" data-name="Path 767" d="M141.3,81.518a12.989,12.989,0,0,1-5.617-1.176,9.109,9.109,0,0,1-3.945-3.553,11.305,11.305,0,0,1-1.437-5.957,10.731,10.731,0,0,1,1.437-5.513,10.85,10.85,0,0,1,4.154-4.05,13.365,13.365,0,0,1,6.61-1.515,4.665,4.665,0,0,1,.549.026c.235.026.5.026.81.052V51.576c0-.183.078-.287.261-.287h5.3a.234.234,0,0,1,.261.183V76.4c0,.47.026.993.052,1.568.052.549.078,1.071.1,1.515a.424.424,0,0,1-.261.418,19.954,19.954,0,0,1-4.259,1.254A23.048,23.048,0,0,1,141.3,81.518Zm2.561-5.226V64.8a6.682,6.682,0,0,0-.705-.131c-.287-.026-.575-.052-.862-.052a6.441,6.441,0,0,0-2.952.679,5.857,5.857,0,0,0-2.221,1.933,5.792,5.792,0,0,0-.862,3.318,7.281,7.281,0,0,0,.444,2.691,5.106,5.106,0,0,0,1.176,1.855,4.514,4.514,0,0,0,1.777,1.045,6.839,6.839,0,0,0,2.169.34c.392,0,.758-.026,1.1-.052A2.285,2.285,0,0,0,143.857,76.293Z" transform="translate(-105.387 -51.284)" fill="#ff61f6"/>
    </g>
  </g>
</svg>
