<svg id="lightbulb" xmlns="http://www.w3.org/2000/svg" width="17.515" height="24.909" viewBox="0 0 17.515 24.909">
  <path id="Path_1" data-name="Path 1" d="M79.09,15.441A3.6,3.6,0,0,1,80.3,17.513h3.713v-5.2a2.924,2.924,0,0,1-2.189-2.827h1.46a1.46,1.46,0,0,0,2.919,0h1.46a2.924,2.924,0,0,1-2.189,2.827v5.2h3.714a3.647,3.647,0,0,1,1.226-2.083,8.753,8.753,0,1,0-11.328.011Z" transform="translate(-75.991 0)"/>
  <path id="Path_2" data-name="Path 2" d="M198.909,454.9a2.922,2.922,0,0,0,2.919-2.919H195.99A2.922,2.922,0,0,0,198.909,454.9Z" transform="translate(-190.152 -429.99)"/>
  <path id="Path_3" data-name="Path 3" d="M165.99,389.98h8.757v1.557H165.99Z" transform="translate(-161.611 -371.007)"/>
</svg>
