<svg xmlns="http://www.w3.org/2000/svg" width="91.97" height="68.37" viewBox="0 0 91.97 68.37">
  <g id="graduate-cap" transform="translate(0.25 -61.307)">
    <path id="Path_609" data-name="Path 609" d="M1.357,88.941l13.651,6.576v10.947a2.4,2.4,0,0,0,1.357,2.16L42.481,121.2a2.4,2.4,0,0,0,1.04.237H47.91a2.4,2.4,0,0,0,1.04-.237l26.044-12.546a2.4,2.4,0,0,0,1.141-1.166c.033-.072.064-.145.1-.217a2.4,2.4,0,0,0,.193-.942V95.516l3.724-1.794v14.844a4.3,4.3,0,0,0-1.728,2.322l-2.119,6.9a4.3,4.3,0,0,0,.021,2.6l1.965,6.055a4.325,4.325,0,0,0,3.971,2.981h.133a4.29,4.29,0,0,0,4.014-2.733l2.272-5.767a4.333,4.333,0,0,0,.125-2.8l-2.118-7.192a4.29,4.29,0,0,0-1.742-2.372V91.414l5.172-2.491a2.4,2.4,0,0,0,1.357-2.16V84.854a2.4,2.4,0,0,0-1.357-2.16L46.756,61.809a2.4,2.4,0,0,0-2.081,0L1.357,82.676A2.4,2.4,0,0,0,0,84.836v1.946A2.4,2.4,0,0,0,1.357,88.941ZM82.434,123.7l-1.506-4.641,1.606-5.234,1.622,5.5Zm-10.8-18.738L47.363,116.647H44.069L19.8,104.958V97.826l24.873,11.982a2.4,2.4,0,0,0,2.081,0L71.63,97.826v7.131ZM45.716,66.629,85.531,85.808,73.3,91.7a2.421,2.421,0,0,0-.318.124L45.716,104.959,18.445,91.822a2.419,2.419,0,0,0-.317-.124L5.9,85.808Z" stroke="#000" stroke-width="0.5"/>
  </g>
</svg>
