<svg xmlns="http://www.w3.org/2000/svg" width="27.326" height="60.411" viewBox="0 0 27.326 60.411">
  <g id="scroll" transform="translate(-144 -8)">
    <path id="Path_99" data-name="Path 99" d="M160.591,48.989a10.747,10.747,0,0,0,10.735-10.735V18.735A10.747,10.747,0,0,0,160.591,8h-5.856A10.747,10.747,0,0,0,144,18.735V38.254a10.747,10.747,0,0,0,10.727,10.735v8.617l-3.284-3.284a.976.976,0,0,0-1.38,0L147.3,57.083a.976.976,0,0,0,0,1.38l9.662,9.662a.976.976,0,0,0,1.38,0L168,58.463a.976.976,0,0,0,0-1.38l-2.761-2.761a.976.976,0,0,0-1.38,0l-3.284,3.284V48.989ZM145.952,18.735a8.793,8.793,0,0,1,8.783-8.783h5.856a8.793,8.793,0,0,1,8.783,8.783v4.88H145.952Zm18.6,37.657,1.381,1.38-8.282,8.281-8.281-8.281,1.381-1.38,4.259,4.26a.976.976,0,0,0,1.666-.69V37.235h1.951V59.962a.976.976,0,0,0,1.666.69ZM159.6,35.283h-3.9a.976.976,0,0,0-.976.976V47.037a8.793,8.793,0,0,1-8.775-8.783V25.567h23.422V38.254a8.793,8.793,0,0,1-8.783,8.783h-.01V36.259a.976.976,0,0,0-.976-.976Z"/>
    <path id="Path_100" data-name="Path 100" d="M232.976,49.759h3.9a.976.976,0,0,0,.976-.976V40.976A.976.976,0,0,0,236.88,40h-3.9a.976.976,0,0,0-.976.976v7.807A.976.976,0,0,0,232.976,49.759Zm.976-7.807H235.9v5.856h-1.952Z" transform="translate(-77.265 -28.096)"/>
  </g>
</svg>
